<svg xmlns="http://www.w3.org/2000/svg" fill="none" viewBox="0 0 100 100">
    <path fill="#2d4552"
        d="M35.445 54.525c-3.222.914-5.335 2.517-6.727 4.119 1.333-1.167 3.12-2.238 5.529-2.921 2.464-.699 4.567-.694 6.304-.358v-1.359c-1.482-.135-3.18-.027-5.106.519m-6.875-11.42-11.964 3.152s.218.308.622.719l10.144-2.673s-.144 1.852-1.392 3.51c2.361-1.787 2.59-4.708 2.59-4.708m10.015 28.118c-16.837 4.534-25.744-14.978-28.441-25.105-1.246-4.675-1.79-8.215-1.935-10.5a4 4 0 0 1 .008-.62c-.873.052-1.291.506-1.206 1.818.145 2.284.689 5.824 1.935 10.5C11.64 57.442 20.55 76.954 37.387 72.42c3.665-.987 6.418-2.785 8.485-5.08-1.905 1.72-4.29 3.075-7.287 3.884m3.164-40.06v1.199h6.604c-.135-.425-.272-.807-.407-1.199z" />
    <path fill="#2d4552"
        d="M49.83 41.032c2.97.843 4.54 2.926 5.37 4.768l3.312.94s-.452-6.449-6.286-8.105c-5.457-1.551-8.815 3.032-9.224 3.625 1.588-1.131 3.906-2.057 6.827-1.228m26.36 4.798c-5.463-1.557-8.82 3.035-9.222 3.62 1.588-1.13 3.905-2.056 6.825-1.224 2.965.845 4.535 2.925 5.368 4.769l3.316.944s-.46-6.45-6.288-8.109M72.9 62.835l-27.548-7.702s.298 1.512 1.442 3.47l23.194 6.484c1.91-1.105 2.911-2.253 2.911-2.253M53.8 79.41c-21.812-5.848-19.175-33.64-15.645-46.809 1.453-5.427 2.947-9.461 4.186-12.165-.74-.152-1.351.237-1.956 1.467-1.316 2.669-2.998 7.013-4.626 13.094-3.529 13.17-6.166 40.96 15.646 46.808 10.28 2.755 18.29-1.431 24.26-8.005-5.667 5.132-12.903 8.01-21.864 5.61" />
    <path fill="#e2574c"
        d="M41.75 64.71v-5.608L26.166 63.52s1.151-6.69 9.278-8.995c2.464-.699 4.567-.694 6.304-.358V31.163h7.802c-.85-2.625-1.671-4.646-2.361-6.05-1.142-2.324-2.313-.783-4.97 1.44-1.871 1.563-6.601 4.898-13.72 6.816-7.117 1.92-12.871 1.41-15.272.995-3.404-.588-5.184-1.335-5.018 1.254.145 2.283.689 5.824 1.935 10.5C12.841 56.244 21.75 75.756 38.586 71.22c4.398-1.185 7.503-3.527 9.654-6.512h-6.49M16.604 46.257l11.965-3.152s-.348 4.603-4.834 5.785c-4.487 1.182-7.13-2.633-7.13-2.633" />
    <path fill="#2ead33"
        d="M86.78 31.43c-3.11.544-10.572 1.224-19.793-1.248-9.224-2.47-15.344-6.79-17.769-8.821-3.437-2.88-4.95-4.88-6.437-1.854-1.316 2.67-2.998 7.014-4.626 13.095-3.528 13.17-6.165 40.96 15.646 46.808 21.806 5.843 33.415-19.544 36.944-32.715 1.628-6.08 2.342-10.684 2.539-13.653.224-3.363-2.086-2.387-6.504-1.613M42.958 42.324s3.437-5.346 9.267-3.69c5.834 1.658 6.285 8.107 6.285 8.107zm14.23 23.989c-10.253-3.004-11.835-11.18-11.835-11.18l27.546 7.7s-5.56 6.446-15.71 3.48m9.74-16.804s3.433-5.343 9.261-3.681c5.829 1.66 6.288 8.109 6.288 8.109z" />
    <path fill="#d65348"
        d="m36.304 60.646-10.137 2.873s1.101-6.273 8.569-8.76l-5.74-21.54-.496.15c-7.118 1.92-12.873 1.41-15.273.995-3.404-.587-5.185-1.335-5.018 1.254.145 2.283.689 5.824 1.935 10.5 2.695 10.126 11.604 29.638 28.441 25.103l.496-.156zM16.605 46.257l11.965-3.152s-.348 4.603-4.834 5.785c-4.487 1.181-7.13-2.633-7.13-2.633" />
    <path fill="#1d8d22"
        d="m57.651 66.427-.463-.113c-10.255-3.004-11.836-11.18-11.836-11.18l14.204 3.97 7.52-28.898-.09-.024c-9.224-2.47-15.344-6.79-17.77-8.821-3.436-2.88-4.948-4.88-6.436-1.854-1.315 2.67-2.997 7.014-4.625 13.095-3.528 13.17-6.165 40.96 15.646 46.808l.447.1zM42.958 42.325s3.437-5.346 9.267-3.69c5.834 1.658 6.285 8.107 6.285 8.107z" />
    <path fill="#c04b41"
        d="m36.82 60.499-2.718.771c.642 3.62 1.774 7.095 3.55 10.164.31-.068.617-.126.932-.213a20 20 0 0 0 2.328-.799c-1.985-2.946-3.299-6.339-4.092-9.923m-1.061-25.5c-1.397 5.213-2.647 12.718-2.303 20.246a16 16 0 0 1 1.989-.721l.503-.113c-.613-8.04.713-16.234 2.207-21.809.379-1.41.758-2.722 1.137-3.945-.61.388-1.266.786-2.014 1.195A103 103 0 0 0 35.758 35" />
</svg>